<?xml version="1.0" encoding="UTF-8" standalone="no"?>
<!DOCTYPE svg PUBLIC "-//W3C//DTD SVG 1.1//EN" "http://www.w3.org/Graphics/SVG/1.1/DTD/svg11.dtd">
<svg version="1.1" xmlns="http://www.w3.org/2000/svg" xmlns:xlink="http://www.w3.org/1999/xlink" preserveAspectRatio="xMidYMid meet" viewBox="0 0 165 200" width="165" height="200"><defs><path d="M152.83 89.64C159.78 89.64 165.41 95.26 165.41 102.21C165.41 104.75 165.41 99.8 165.41 102.34C165.41 109.28 159.78 114.91 152.83 114.91C122.27 114.91 43.14 114.91 12.57 114.91C5.63 114.91 0 109.28 0 102.34C0 99.8 0 104.75 0 102.21C0 95.26 5.63 89.64 12.57 89.64C43.14 89.64 122.27 89.64 152.83 89.64Z" id="a2Dk7uQmVV"></path><path d="M162.21 89.66C166.84 94.84 166.39 102.79 161.21 107.41C159.31 109.1 163.01 105.8 161.11 107.5C155.93 112.12 147.98 111.67 143.36 106.49C126.43 87.52 84 40 67.07 21.03C62.45 15.85 62.9 7.9 68.08 3.28C69.97 1.59 66.28 4.88 68.17 3.19C73.35 -1.43 81.3 -0.98 85.92 4.2C102.85 23.17 145.28 70.69 162.21 89.66Z" id="h1QC6Xi6MN"></path><path d="M162.21 110.66C166.84 105.49 166.39 97.54 161.21 92.91C159.31 91.22 163.01 94.52 161.11 92.83C155.93 88.21 147.98 88.66 143.36 93.84C126.43 112.8 84 160.33 67.07 179.3C62.45 184.48 62.9 192.42 68.08 197.05C69.97 198.74 66.28 195.44 68.17 197.13C73.35 201.76 81.3 201.3 85.92 196.13C102.85 177.16 145.28 129.63 162.21 110.66Z" id="a1j6MOBmaL"></path><path d="M0 89.64L52.84 89.64L52.84 114.91L0 114.91L0 89.64Z" id="a2nDGPzEiD"></path></defs><g><g><g><use xlink:href="#a2Dk7uQmVV" opacity="1" fill="#878787" fill-opacity="1"></use></g><g><use xlink:href="#h1QC6Xi6MN" opacity="1" fill="#878787" fill-opacity="1"></use></g><g><use xlink:href="#a1j6MOBmaL" opacity="1" fill="#878787" fill-opacity="1"></use></g><g><use xlink:href="#a2nDGPzEiD" opacity="1" fill="#878787" fill-opacity="1"></use></g></g></g></svg>